<svg preserveAspectRatio="none" width="100%" height="100%" overflow="visible" style="display: block;" viewBox="0 0 102.817 122.77" fill="none" xmlns="http://www.w3.org/2000/svg">
<g id="Union">
<path fill-rule="evenodd" clip-rule="evenodd" d="M47.5549 48.9795C52.7023 48.0969 57.9285 48.243 62.0621 48.6436C65.172 48.9289 68.0838 50.296 70.2921 52.5041C72.5004 54.7124 73.8673 57.6242 74.1527 60.7342C74.5568 64.8677 74.7028 70.0975 73.8168 75.2414C72.934 80.3714 70.9907 85.6532 67.0202 89.624C63.4678 93.1763 58.735 95.2261 53.9845 96.4068C49.2203 97.587 44.2436 97.9371 39.9827 97.9371C39.359 97.9371 38.8371 98.4597 38.8367 99.0763C38.8011 105.347 38.0455 113.292 34.9727 119.719C33.8172 122.136 31.4346 123.147 29.1767 122.644C27.0605 122.177 25.3263 120.465 24.7622 118.154C24.0744 115.339 23.1861 112.068 22.1793 109.228C21.676 107.807 21.1594 106.537 20.642 105.502C20.1067 104.432 19.6489 103.775 19.3263 103.456C19.0036 103.13 18.347 102.676 17.2766 102.137C16.2416 101.62 14.9688 101.103 13.5476 100.6C10.7042 99.5893 7.43334 98.6977 4.61475 98.0098C2.30367 97.4458 0.595543 95.7116 0.124074 93.5988C-0.374698 91.341 0.636009 88.9583 3.05323 87.8028C9.49143 84.7297 17.452 83.974 23.7304 83.9492C24.0318 83.9442 24.3209 83.8234 24.5337 83.6099C24.7464 83.3961 24.8659 83.1048 24.8695 82.8032C24.8661 78.5388 25.2162 73.5654 26.3964 68.8014C27.5735 64.0579 29.6269 59.3248 33.1757 55.7761C37.1464 51.8101 42.4255 49.8657 47.5549 48.9795ZM53.1812 58.958C52.2412 58.958 51.3393 59.3322 50.6744 59.9967C50.0098 60.6614 49.636 61.5634 49.6357 62.5034C49.6358 63.4436 50.0097 64.3453 50.6744 65.0102C51.3393 65.675 52.2409 66.0489 53.1812 66.0489C54.1213 66.0488 55.0231 65.6749 55.6879 65.0102C56.3524 64.3453 56.7266 63.4434 56.7266 62.5034C56.7264 61.5634 56.3526 60.6614 55.6879 59.9967C55.0231 59.332 54.1212 58.9581 53.1812 58.958Z" fill="url(#paint0_radial_0_302)"/>
<path d="M92.1811 44.7831C94.1305 44.7836 95.7261 46.3792 95.7266 48.3285C95.7266 50.2782 94.1307 51.8735 92.1811 51.874C90.2311 51.874 88.6357 50.2785 88.6357 48.3285C88.6362 46.3789 90.2314 44.7831 92.1811 44.7831Z" fill="url(#paint1_radial_0_302)"/>
<path d="M81.5448 41.2376C83.4941 41.2381 85.0898 42.8338 85.0902 44.7831C85.0902 46.7328 83.4944 48.3281 81.5448 48.3285C79.5948 48.3285 77.9993 46.7331 77.9993 44.7831C77.9998 42.8335 79.5951 41.2376 81.5448 41.2376Z" fill="url(#paint2_radial_0_302)"/>
<path d="M99.272 34.1467C101.221 34.1472 102.817 35.7429 102.817 37.6922C102.817 39.6419 101.222 41.2372 99.272 41.2376C97.322 41.2376 95.7266 39.6422 95.7266 37.6922C95.7271 35.7426 97.3223 34.1467 99.272 34.1467Z" fill="url(#paint3_radial_0_302)"/>
<path d="M88.6357 30.6013C90.585 30.6018 92.1807 32.1974 92.1811 34.1467C92.1811 36.0964 90.5853 37.6917 88.6357 37.6922C86.6857 37.6922 85.0902 36.0967 85.0902 34.1467C85.0907 32.1971 86.686 30.6013 88.6357 30.6013Z" fill="url(#paint4_radial_0_302)"/>
<path d="M49.6357 3.27293C56.2832 -3.63372 64.4093 1.46446 64.4096 8.6465C64.4096 15.829 58.4705 19.6602 54.1229 23.0845C52.59 24.2955 51.1126 25.432 49.6357 25.432C48.1586 25.432 46.6817 24.2928 45.1485 23.0845C40.8026 19.6574 34.8624 15.8298 34.8619 8.6465C34.8619 1.46275 42.9881 -3.63386 49.6357 3.27293Z" fill="url(#paint5_radial_0_302)"/>
</g>
<defs>
<radialGradient id="paint0_radial_0_302" cx="0" cy="0" r="1" gradientUnits="userSpaceOnUse" gradientTransform="translate(9.91622 47.5205) rotate(25.8704) scale(157.011 214.694)">
<stop stop-color="#F5F3FF" stop-opacity="0"/>
<stop offset="1" stop-color="#FF7072"/>
</radialGradient>
<radialGradient id="paint1_radial_0_302" cx="0" cy="0" r="1" gradientUnits="userSpaceOnUse" gradientTransform="translate(9.91622 47.5205) rotate(25.8704) scale(157.011 214.694)">
<stop stop-color="#F5F3FF" stop-opacity="0"/>
<stop offset="1" stop-color="#FF7072"/>
</radialGradient>
<radialGradient id="paint2_radial_0_302" cx="0" cy="0" r="1" gradientUnits="userSpaceOnUse" gradientTransform="translate(9.91622 47.5205) rotate(25.8704) scale(157.011 214.694)">
<stop stop-color="#F5F3FF" stop-opacity="0"/>
<stop offset="1" stop-color="#FF7072"/>
</radialGradient>
<radialGradient id="paint3_radial_0_302" cx="0" cy="0" r="1" gradientUnits="userSpaceOnUse" gradientTransform="translate(9.91622 47.5205) rotate(25.8704) scale(157.011 214.694)">
<stop stop-color="#F5F3FF" stop-opacity="0"/>
<stop offset="1" stop-color="#FF7072"/>
</radialGradient>
<radialGradient id="paint4_radial_0_302" cx="0" cy="0" r="1" gradientUnits="userSpaceOnUse" gradientTransform="translate(9.91622 47.5205) rotate(25.8704) scale(157.011 214.694)">
<stop stop-color="#F5F3FF" stop-opacity="0"/>
<stop offset="1" stop-color="#FF7072"/>
</radialGradient>
<radialGradient id="paint5_radial_0_302" cx="0" cy="0" r="1" gradientUnits="userSpaceOnUse" gradientTransform="translate(9.91622 47.5205) rotate(25.8704) scale(157.011 214.694)">
<stop stop-color="#F5F3FF" stop-opacity="0"/>
<stop offset="1" stop-color="#FF7072"/>
</radialGradient>
</defs>
</svg>
