<svg preserveAspectRatio="none" width="100%" height="100%" overflow="visible" style="display: block;" viewBox="0 0 120 120" fill="none" xmlns="http://www.w3.org/2000/svg">
<path id="Union" d="M101.707 0C105.344 1.44313e-06 108.293 3.22355 108.293 7.2C108.293 11.1765 105.344 14.4 101.707 14.4H88.7895C107.389 23.4121 120 41.3446 120 64.3516C120 84.9465 109.893 104.82 94.4322 117.111C91.9386 119.094 88.7898 120 85.6042 120H34.3958C31.2102 120 28.0614 119.094 25.5678 117.111C10.1074 104.82 0.000111996 84.9465 0 64.3516C0 41.3446 12.6113 23.4121 31.2105 14.4H19.7561C16.1191 14.4 13.1707 11.1765 13.1707 7.2C13.1707 3.22355 16.1191 1.86834e-07 19.7561 0H101.707ZM60.1215 76.25C57.061 76.25 54.5066 77.7641 52.6143 79.5172L52.6201 79.5219C51.838 80.2497 51.1468 81.0369 50.5578 81.8125L46.2276 79.0344C45.6194 78.6467 44.8569 78.7519 44.3598 79.2938C43.8626 79.8356 43.7564 80.6759 44.104 81.3453L46.3148 85.6L44.104 89.8547C43.7564 90.5241 43.8583 91.3644 44.3555 91.9063C44.8527 92.4479 45.62 92.5534 46.2233 92.1656L50.5535 89.3938C51.1424 90.1692 51.8325 90.9552 52.6143 91.6828C54.5066 93.4359 57.061 94.95 60.1215 94.95C63.1815 94.9498 65.7351 93.4363 67.6272 91.6781C69.5146 89.925 70.8566 87.8306 71.5373 86.375C71.7639 85.8863 71.7641 85.3074 71.5373 84.8188C70.8566 83.3631 69.5145 81.2702 67.6272 79.5172C65.735 77.7642 63.1817 76.2502 60.1215 76.25ZM63.983 83.9C64.3926 83.9001 64.7851 84.0797 65.0748 84.3984C65.3644 84.7172 65.5278 85.1492 65.5278 85.6C65.5278 86.0508 65.3644 86.4828 65.0748 86.8016C64.7851 87.1203 64.3926 87.3 63.983 87.3C63.5733 87.3 63.1808 87.1203 62.8911 86.8016C62.6014 86.4828 62.4381 86.0509 62.4381 85.6C62.4381 85.1491 62.6014 84.7173 62.8911 84.3984C63.1808 84.0797 63.5733 83.9 63.983 83.9ZM69.5108 56C67.4904 56.0003 65.8522 57.791 65.8522 60C65.8522 62.209 67.4904 63.9997 69.5108 64C71.5313 64 73.1693 62.2091 73.1693 60C73.1693 57.7909 71.5313 56 69.5108 56ZM65.1205 41.6C63.1002 41.6003 61.462 43.391 61.462 45.6C61.462 47.809 63.1002 49.5997 65.1205 49.6C67.1411 49.6 68.7791 47.8091 68.7791 45.6C68.7791 43.3909 67.1411 41.6 65.1205 41.6ZM76.8278 28.8C74.8075 28.8003 73.1693 30.591 73.1693 32.8C73.1693 35.009 74.8075 36.7997 76.8278 36.8C78.8484 36.8 80.4864 35.0091 80.4864 32.8C80.4864 30.5909 78.8484 28.8 76.8278 28.8Z" fill="url(#paint0_radial_0_305)"/>
<defs>
<radialGradient id="paint0_radial_0_305" cx="0" cy="0" r="1" gradientUnits="userSpaceOnUse" gradientTransform="translate(11.8812 36.8317) rotate(51.3463) scale(177.876 180.583)">
<stop offset="0.169213" stop-color="#93DFFF" stop-opacity="0"/>
<stop offset="0.668269" stop-color="#50DBD7" stop-opacity="0.3"/>
<stop offset="1" stop-color="#0DD8AF"/>
</radialGradient>
</defs>
</svg>
