<svg width="24" height="24" viewBox="0 0 24 24" fill="none" xmlns="http://www.w3.org/2000/svg">
<path d="M11.137 13.938C10.309 14.173 9.421 14.3 8.5 14.3C7.434 14.302 6.375 14.127 5.366 13.782L2.5 15.5V12.139C1.016 10.84 0.1 9.063 0.1 7.1C0.1 3.123 3.859 0.1 8.5 0.1C13.04 0.1 16.735 2.982 16.9 6.842V7.122M9.5 5.1H9.512M5.9 5.1H5.912M15.5 12.3H15.512M19.1 12.3H19.112M17.3 7.5C20.942 7.5 23.9 9.918 23.9 12.9C23.9 14.576 22.966 16.076 21.5 17.064V19.5L19.143 18.086C18.539 18.228 17.921 18.3 17.3 18.3C13.655 18.3 10.7 15.882 10.7 12.9C10.7 9.918 13.655 7.5 17.3 7.5Z" stroke="currentColor" stroke-width="1.5" stroke-linecap="round" stroke-linejoin="round"/>
</svg>
