<svg width="24" height="24" viewBox="0 0 24 24" fill="none" xmlns="http://www.w3.org/2000/svg">
<path fill-rule="evenodd" clip-rule="evenodd" d="M12.7084 11.6719C13.6697 11.6719 14.4719 12.1653 15.0663 12.736C15.6592 13.3067 16.0813 13.9877 16.2951 14.4616C16.3664 14.6207 16.3664 14.8097 16.2951 14.9688C16.0813 15.4426 15.6591 16.1237 15.0663 16.6944C14.4719 17.2667 13.6697 17.7595 12.7084 17.7595C11.7472 17.7594 10.9448 17.2671 10.3505 16.6965C10.1048 16.4596 9.88779 16.2029 9.7028 15.9504L8.34286 16.8529C8.15332 16.9791 7.91201 16.9447 7.75583 16.7683C7.6 16.592 7.56861 16.3192 7.67756 16.1015L8.37221 14.7162L7.67756 13.3309C7.56839 13.113 7.60161 12.8395 7.75779 12.6631C7.91397 12.4868 8.15381 12.4523 8.34482 12.5785L9.70476 13.4831C9.88974 13.2306 10.1068 12.975 10.3524 12.7381L10.3505 12.736C10.9449 12.1654 11.7471 11.672 12.7084 11.6719ZM13.9216 14.1625C13.7929 14.1625 13.6691 14.2205 13.5782 14.3242C13.4872 14.428 13.4363 14.5695 13.4363 14.7162C13.4364 14.8628 13.4873 15.0035 13.5782 15.1072C13.6691 15.211 13.7929 15.2689 13.9216 15.2689C14.0503 15.2689 14.174 15.211 14.265 15.1072C14.3558 15.0035 14.4068 14.8628 14.4068 14.7162C14.4068 14.5695 14.356 14.428 14.265 14.3242C14.174 14.2205 14.0502 14.1625 13.9216 14.1625Z" fill="#9CA5AE"/>
<path fill-rule="evenodd" clip-rule="evenodd" d="M20.2438 2C20.6581 2.00001 20.9943 2.36312 20.9943 2.81048C20.9943 3.25784 20.6581 3.62095 20.2438 3.62096H18.2059C20.5062 5.66146 21.9814 8.8067 21.9814 12.3366C21.9813 18.4876 17.6421 21.9999 12.1194 22C6.59658 22 1.98155 18.4876 1.98145 12.3366C1.98148 8.80676 3.45671 5.66146 5.75701 3.62096H3.83547C3.42126 3.62096 3.08506 3.25785 3.08506 2.81048C3.08506 2.36311 3.42126 2 3.83547 2H20.2438ZM16.66 8.83891C12.7612 11.4351 9.28056 10.1316 7.60712 8.8463L3.63882 10.499C3.53539 11.0926 3.48131 11.7069 3.4813 12.3366C3.48135 14.9318 4.43756 16.8891 5.93507 18.2266C7.46228 19.5904 9.63913 20.3801 12.1194 20.3801C14.5969 20.38 16.693 19.592 18.1442 18.2456C19.5692 16.9234 20.4815 14.9661 20.4816 12.3366C20.4816 11.7106 20.4273 11.1 20.3251 10.5095L16.66 8.83891ZM8.57082 3.62096C6.62008 4.57981 5.0437 6.33535 4.18671 8.53458L7.46134 7.1725L7.5582 7.13975C7.78736 7.08114 8.03163 7.14214 8.21469 7.30882C9.37037 8.361 12.5189 9.8902 16.1728 7.25493L16.254 7.20315C16.4485 7.09824 16.678 7.08949 16.8812 7.18202L19.7605 8.49443C18.9002 6.3141 17.3316 4.57405 15.393 3.62096H8.57082Z" fill="#9CA5AE"/>
</svg>
