<svg width="24" height="26" viewBox="0 0 24 26" fill="none" xmlns="http://www.w3.org/2000/svg">
<path d="M21.915 2C22.409 2 22.816 2.43574 22.816 2.97258C22.816 3.50941 22.409 3.94514 21.915 3.94515H19.486C22.23 6.38575 24 10.1481 24 14.404C24 15.1908 23.937 15.941 23.823 16.6546C23.822 16.7168 23.823 16.7775 23.822 16.8359C23.819 16.9525 23.798 17.0687 23.758 17.177C23.738 17.2324 23.714 17.2876 23.693 17.3444C22.492 22.8928 17.855 25.9999 12.166 26C5.538 26 0.000122 21.7851 0 14.404C0.0000438 10.1481 1.77031 6.38575 4.53067 3.94515H2.22484C1.72778 3.94515 1.32433 3.50942 1.32433 2.97258C1.32433 2.43573 1.72778 2 2.22484 2H21.915ZM12.873 13.6074C11.719 13.6074 10.756 14.1983 10.043 14.8832L10.046 14.8857C9.751 15.17 9.49 15.4768 9.268 15.7796L7.636 14.6942C7.407 14.5429 7.119 14.5843 6.932 14.7956C6.745 15.0073 6.705 15.3357 6.835 15.597L7.669 17.2594L6.835 18.9218C6.727 19.1831 6.764 19.5104 6.949 19.7219C7.137 19.9334 7.426 19.9758 7.654 19.8247L9.266 18.7404C9.488 19.0435 9.748 19.3515 10.043 19.6358C10.756 20.3203 11.719 20.9113 12.873 20.9114C14.026 20.9114 14.989 20.32 15.702 19.6333C16.413 18.9486 16.92 18.1311 17.176 17.5625C17.262 17.3718 17.262 17.1447 17.176 16.9539C16.92 16.3853 16.413 15.5679 15.702 14.8832C14.989 14.1983 14.026 13.6074 12.873 13.6074ZM14.328 16.595C14.483 16.595 14.631 16.6658 14.74 16.7902C14.849 16.9148 14.911 17.0836 14.911 17.2594C14.91 17.4352 14.849 17.6042 14.74 17.7286C14.631 17.8531 14.483 17.9239 14.328 17.9239C14.174 17.9239 14.025 17.8531 13.916 17.7286C13.807 17.6042 13.746 17.4352 13.746 17.2594C13.746 17.0836 13.807 16.9148 13.916 16.7902C14.025 16.6658 14.174 16.595 14.328 16.595ZM7.907 3.94515C5.566 5.09399 3.673 7.19896 2.645 9.83476L6.577 8.2068L6.693 8.1674C6.968 8.09737 7.262 8.17054 7.481 8.3706C8.868 9.63321 12.646 11.4682 17.031 8.3059L17.128 8.24378C17.362 8.11784 17.637 8.1073 17.881 8.21842L21.334 9.79203C20.301 7.17637 18.42 5.08863 16.094 3.94515H7.907Z" fill="currentColor"/>
</svg>
