<svg preserveAspectRatio="none" width="100%" height="100%" overflow="visible" style="display: block;" viewBox="0 0 205.833 205.833" fill="none" xmlns="http://www.w3.org/2000/svg">
<path id="Union" d="M187.951 0C192.213 0.000151656 195.674 3.73711 195.674 8.34121C195.674 12.9453 192.213 16.6823 187.951 16.6824H166.977C190.65 37.6825 205.833 70.0523 205.833 106.38C205.833 113.129 205.289 119.563 204.313 125.684C204.306 126.217 204.312 126.738 204.303 127.239C204.285 128.238 204.101 129.236 203.759 130.164C203.584 130.64 203.383 131.113 203.195 131.6C192.898 179.185 153.127 205.832 104.336 205.833C47.4974 205.833 0.00104648 169.685 0 106.38C0.000375177 70.0529 15.1829 37.6826 38.8568 16.6824H19.081C14.818 16.6824 11.358 12.9454 11.358 8.34121C11.358 3.73702 14.818 0 19.081 0H187.951ZM110.398 99.5508C100.505 99.5514 92.2484 104.618 86.1314 110.491L86.1515 110.513C83.6243 112.951 81.3892 115.582 79.4858 118.18L65.4897 108.871C63.5242 107.572 61.0556 107.928 59.4482 109.741C57.8419 111.556 57.4992 114.372 58.6225 116.614L65.7716 130.871L58.6225 145.128C57.5019 147.368 57.8252 150.176 59.4281 151.991C61.0343 153.803 63.52 154.167 65.4695 152.872L79.4656 143.573C81.3692 146.171 83.6039 148.813 86.1314 151.251C92.2483 157.123 100.506 162.191 110.398 162.191C120.291 162.191 128.547 157.12 134.665 151.229C140.765 145.357 145.111 138.347 147.311 133.47C148.044 131.834 148.044 129.887 147.311 128.25C145.111 123.374 140.765 116.364 134.665 110.491C128.547 104.619 120.291 99.5508 110.398 99.5508ZM122.884 125.173C124.208 125.173 125.482 125.779 126.418 126.847C127.352 127.915 127.878 129.363 127.878 130.871C127.877 132.379 127.352 133.828 126.418 134.895C125.482 135.962 124.208 136.57 122.884 136.57C121.56 136.57 120.286 135.962 119.349 134.895C118.415 133.828 117.89 132.379 117.889 130.871C117.889 129.363 118.416 127.915 119.349 126.847C120.286 125.779 121.559 125.173 122.884 125.173ZM67.8156 16.6824C47.7354 26.5524 31.5045 44.6228 22.6858 67.2626L56.4073 53.2337L57.4042 52.8966C59.7627 52.2934 62.2765 52.921 64.1605 54.6366C76.057 65.4654 108.46 81.2031 146.063 54.082L146.899 53.5491C148.901 52.469 151.262 52.3784 153.353 53.3316L182.966 66.8276C174.111 44.3946 157.974 26.4894 138.028 16.6824H67.8156Z" fill="url(#paint0_linear_0_88)"/>
<defs>
<linearGradient id="paint0_linear_0_88" x1="186.386" y1="277.156" x2="9.06168" y2="72.2107" gradientUnits="userSpaceOnUse">
<stop stop-color="white"/>
<stop offset="1" stop-color="white" stop-opacity="0.5"/>
</linearGradient>
</defs>
</svg>
